<svg width="183" height="181" viewBox="0 0 183 181" fill="none" xmlns="http://www.w3.org/2000/svg">
<g filter="url(#filter0_i_114_1197)">
<path d="M108.087 82.5541C108.13 82.3107 108.152 82.0602 108.152 81.8046C108.152 79.4131 106.221 77.4745 103.839 77.4745C102.068 77.4745 100.547 78.5459 99.8824 80.0783C99.3443 79.6119 98.6461 79.3302 97.8831 79.3302C96.1817 79.3302 94.8025 80.7304 94.8025 82.4575C94.8025 82.5537 94.8068 82.6489 94.8151 82.7428C93.9968 83.1453 93.4333 83.9897 93.4333 84.9662C93.4333 86.3328 94.5367 87.4406 95.8978 87.4406H107.536C108.897 87.4406 110 86.3328 110 84.9662C110 83.7901 109.183 82.8057 108.087 82.5541Z" fill="url(#paint0_linear_114_1197)"/>
</g>
<g filter="url(#filter1_f_114_1197)">
<rect x="77.5667" y="77" width="28" height="26.8136" fill="#FFEF9A"/>
</g>
<g filter="url(#filter2_i_114_1197)">
<path d="M103.933 90.4067C103.933 97.4179 98.3965 103.102 91.5666 103.102C84.7367 103.102 79.2 97.4179 79.2 90.4067C79.2 83.3955 84.7367 77.7118 91.5666 77.7118C98.3965 77.7118 103.933 83.3955 103.933 90.4067Z" fill="url(#paint1_linear_114_1197)"/>
</g>
<g filter="url(#filter3_i_114_1197)">
<path d="M89.6539 100.114C89.6962 99.8702 89.7183 99.6198 89.7183 99.3642C89.7183 96.9727 87.7874 95.0341 85.4055 95.0341C83.6348 95.0341 82.1133 96.1055 81.4491 97.6379C80.911 97.1714 80.2127 96.8898 79.4497 96.8898C77.7484 96.8898 76.3691 98.29 76.3691 100.017C76.3691 100.113 76.3734 100.208 76.3818 100.302C75.5635 100.705 75 101.549 75 102.526C75 103.892 76.1034 105 77.4644 105H89.1022C90.4633 105 91.5667 103.892 91.5667 102.526C91.5667 101.35 90.7494 100.365 89.6539 100.114Z" fill="url(#paint2_linear_114_1197)"/>
</g>
<defs>
<filter id="filter0_i_114_1197" x="93.4333" y="77.4745" width="16.5667" height="19.9661" filterUnits="userSpaceOnUse" color-interpolation-filters="sRGB">
<feFlood flood-opacity="0" result="BackgroundImageFix"/>
<feBlend mode="normal" in="SourceGraphic" in2="BackgroundImageFix" result="shape"/>
<feColorMatrix in="SourceAlpha" type="matrix" values="0 0 0 0 0 0 0 0 0 0 0 0 0 0 0 0 0 0 127 0" result="hardAlpha"/>
<feOffset dy="11"/>
<feGaussianBlur stdDeviation="5"/>
<feComposite in2="hardAlpha" operator="arithmetic" k2="-1" k3="1"/>
<feColorMatrix type="matrix" values="0 0 0 0 1 0 0 0 0 1 0 0 0 0 1 0 0 0 1 0"/>
<feBlend mode="normal" in2="shape" result="effect1_innerShadow_114_1197"/>
</filter>
<filter id="filter1_f_114_1197" x="0.56665" y="0" width="182" height="180.814" filterUnits="userSpaceOnUse" color-interpolation-filters="sRGB">
<feFlood flood-opacity="0" result="BackgroundImageFix"/>
<feBlend mode="normal" in="SourceGraphic" in2="BackgroundImageFix" result="shape"/>
<feGaussianBlur stdDeviation="38.5" result="effect1_foregroundBlur_114_1197"/>
</filter>
<filter id="filter2_i_114_1197" x="79.2" y="77.7118" width="24.7333" height="30.3898" filterUnits="userSpaceOnUse" color-interpolation-filters="sRGB">
<feFlood flood-opacity="0" result="BackgroundImageFix"/>
<feBlend mode="normal" in="SourceGraphic" in2="BackgroundImageFix" result="shape"/>
<feColorMatrix in="SourceAlpha" type="matrix" values="0 0 0 0 0 0 0 0 0 0 0 0 0 0 0 0 0 0 127 0" result="hardAlpha"/>
<feOffset dy="5"/>
<feGaussianBlur stdDeviation="9"/>
<feComposite in2="hardAlpha" operator="arithmetic" k2="-1" k3="1"/>
<feColorMatrix type="matrix" values="0 0 0 0 1 0 0 0 0 1 0 0 0 0 1 0 0 0 0.81 0"/>
<feBlend mode="normal" in2="shape" result="effect1_innerShadow_114_1197"/>
</filter>
<filter id="filter3_i_114_1197" x="75" y="95.0341" width="16.5667" height="19.9661" filterUnits="userSpaceOnUse" color-interpolation-filters="sRGB">
<feFlood flood-opacity="0" result="BackgroundImageFix"/>
<feBlend mode="normal" in="SourceGraphic" in2="BackgroundImageFix" result="shape"/>
<feColorMatrix in="SourceAlpha" type="matrix" values="0 0 0 0 0 0 0 0 0 0 0 0 0 0 0 0 0 0 127 0" result="hardAlpha"/>
<feOffset dy="11"/>
<feGaussianBlur stdDeviation="5"/>
<feComposite in2="hardAlpha" operator="arithmetic" k2="-1" k3="1"/>
<feColorMatrix type="matrix" values="0 0 0 0 1 0 0 0 0 1 0 0 0 0 1 0 0 0 1 0"/>
<feBlend mode="normal" in2="shape" result="effect1_innerShadow_114_1197"/>
</filter>
<linearGradient id="paint0_linear_114_1197" x1="94.487" y1="86.5508" x2="111.359" y2="74.1004" gradientUnits="userSpaceOnUse">
<stop stop-color="white"/>
<stop offset="1" stop-color="white" stop-opacity="0.58"/>
</linearGradient>
<linearGradient id="paint1_linear_114_1197" x1="89.6881" y1="97.3166" x2="100.271" y2="79.236" gradientUnits="userSpaceOnUse">
<stop stop-color="#FF9900"/>
<stop offset="1" stop-color="#FFEE94"/>
</linearGradient>
<linearGradient id="paint2_linear_114_1197" x1="76.0537" y1="104.11" x2="92.9253" y2="91.66" gradientUnits="userSpaceOnUse">
<stop stop-color="white"/>
<stop offset="1" stop-color="white" stop-opacity="0.58"/>
</linearGradient>
</defs>
</svg>
