<svg width="181" height="184" viewBox="0 0 181 184" fill="none" xmlns="http://www.w3.org/2000/svg">
<g filter="url(#filter0_f_114_1326)">
<rect x="76.9904" y="77" width="27.0096" height="29.6255" fill="#FFEF9A"/>
</g>
<g filter="url(#filter1_i_114_1326)">
<path d="M102.199 94.1723C102.199 101.702 96.9592 107.805 90.4952 107.805C84.0312 107.805 78.791 101.702 78.791 94.1723C78.791 86.643 84.0312 80.5393 90.4952 80.5393C96.9592 80.5393 102.199 86.643 102.199 94.1723Z" fill="url(#paint0_linear_114_1326)"/>
</g>
<g filter="url(#filter2_b_114_1326)">
<g filter="url(#filter3_i_114_1326)">
<path d="M97.1717 101.202C97.2531 100.664 97.2955 100.111 97.2955 99.5458C97.2955 94.2613 93.5834 89.9774 89.0043 89.9774C85.6001 89.9774 82.675 92.345 81.3981 95.7311C80.3637 94.7005 79.0213 94.0782 77.5545 94.0782C74.2837 94.0782 71.6321 97.1721 71.6321 100.989C71.6321 101.201 71.6404 101.411 71.6565 101.619C70.0833 102.508 69 104.374 69 106.532C69 109.552 71.1212 112 73.7379 112H96.111C98.7277 112 100.849 109.552 100.849 106.532C100.849 103.933 99.2777 101.758 97.1717 101.202Z" fill="url(#paint1_linear_114_1326)"/>
</g>
</g>
<defs>
<filter id="filter0_f_114_1326" x="-0.00964355" y="0" width="181.01" height="183.625" filterUnits="userSpaceOnUse" color-interpolation-filters="sRGB">
<feFlood flood-opacity="0" result="BackgroundImageFix"/>
<feBlend mode="normal" in="SourceGraphic" in2="BackgroundImageFix" result="shape"/>
<feGaussianBlur stdDeviation="38.5" result="effect1_foregroundBlur_114_1326"/>
</filter>
<filter id="filter1_i_114_1326" x="78.791" y="80.5393" width="23.4083" height="32.2659" filterUnits="userSpaceOnUse" color-interpolation-filters="sRGB">
<feFlood flood-opacity="0" result="BackgroundImageFix"/>
<feBlend mode="normal" in="SourceGraphic" in2="BackgroundImageFix" result="shape"/>
<feColorMatrix in="SourceAlpha" type="matrix" values="0 0 0 0 0 0 0 0 0 0 0 0 0 0 0 0 0 0 127 0" result="hardAlpha"/>
<feOffset dy="5"/>
<feGaussianBlur stdDeviation="9"/>
<feComposite in2="hardAlpha" operator="arithmetic" k2="-1" k3="1"/>
<feColorMatrix type="matrix" values="0 0 0 0 1 0 0 0 0 1 0 0 0 0 1 0 0 0 0.81 0"/>
<feBlend mode="normal" in2="shape" result="effect1_innerShadow_114_1326"/>
</filter>
<filter id="filter2_b_114_1326" x="42" y="62.9774" width="85.8489" height="76.0225" filterUnits="userSpaceOnUse" color-interpolation-filters="sRGB">
<feFlood flood-opacity="0" result="BackgroundImageFix"/>
<feGaussianBlur in="BackgroundImageFix" stdDeviation="13.5"/>
<feComposite in2="SourceAlpha" operator="in" result="effect1_backgroundBlur_114_1326"/>
<feBlend mode="normal" in="SourceGraphic" in2="effect1_backgroundBlur_114_1326" result="shape"/>
</filter>
<filter id="filter3_i_114_1326" x="69" y="89.9774" width="31.8489" height="32.0225" filterUnits="userSpaceOnUse" color-interpolation-filters="sRGB">
<feFlood flood-opacity="0" result="BackgroundImageFix"/>
<feBlend mode="normal" in="SourceGraphic" in2="BackgroundImageFix" result="shape"/>
<feColorMatrix in="SourceAlpha" type="matrix" values="0 0 0 0 0 0 0 0 0 0 0 0 0 0 0 0 0 0 127 0" result="hardAlpha"/>
<feOffset dy="11"/>
<feGaussianBlur stdDeviation="5"/>
<feComposite in2="hardAlpha" operator="arithmetic" k2="-1" k3="1"/>
<feColorMatrix type="matrix" values="0 0 0 0 1 0 0 0 0 1 0 0 0 0 1 0 0 0 1 0"/>
<feBlend mode="normal" in2="shape" result="effect1_innerShadow_114_1326"/>
</filter>
<linearGradient id="paint0_linear_114_1326" x1="88.7173" y1="101.593" x2="100.731" y2="83.5031" gradientUnits="userSpaceOnUse">
<stop stop-color="#FF9900"/>
<stop offset="1" stop-color="#FFEE94"/>
</linearGradient>
<linearGradient id="paint1_linear_114_1326" x1="71.0257" y1="110.034" x2="106.501" y2="87.2577" gradientUnits="userSpaceOnUse">
<stop stop-color="white"/>
<stop offset="1" stop-color="white" stop-opacity="0.58"/>
</linearGradient>
</defs>
</svg>
