<svg width="25" height="25" viewBox="0 0 25 25" fill="none" xmlns="http://www.w3.org/2000/svg">
<path d="M10.4651 1.73853H3.48828V4.06467H10.4651V1.73853Z" fill="#2F5F8A"/>
<path d="M5.81401 6.39075H0V8.71689H5.81401V6.39075Z" fill="#2F5F8A"/>
<path d="M8.1397 20.3478H2.32568V22.6739H8.1397V20.3478Z" fill="#2F5F8A"/>
<path d="M14.8024 10.5895C15.6745 10.857 16.3141 11.4967 16.628 12.2876L21.5932 4.01816C22.349 2.76204 21.942 1.13373 20.6862 0.377735C19.6746 -0.227063 18.3722 -0.0991252 17.5118 0.715026L13.5233 4.44849C13.0582 4.87883 12.7908 5.49526 12.7908 6.13495V10.7058C13.2094 10.5314 13.9303 10.322 14.8024 10.5895Z" fill="#2F5F8A"/>
<path d="M11.1745 12.5203C11.3606 11.9155 11.7327 11.4038 12.2094 11.0432H2.65119C1.18606 11.0432 0 12.2295 0 13.695C0 14.8814 0.779078 15.9165 1.91862 16.2422L7.16287 17.7425C7.77915 17.917 8.44195 17.8356 9.00009 17.4983L12.128 15.6257C11.2327 14.9046 10.8141 13.6834 11.1745 12.5203Z" fill="#2F5F8A"/>
<path d="M24.6632 19.8939L22.012 15.1253C21.698 14.567 21.1631 14.1599 20.5468 13.9971L16.8491 13.0667C16.884 13.4388 16.8491 13.8343 16.7328 14.2181C16.3607 15.451 15.2445 16.2767 13.9537 16.2767C13.2444 16.2767 12.8026 16.0209 12.7909 16.0209V22.6736C11.5119 22.6736 10.4653 23.7204 10.4653 24.9998H17.4422C17.4422 23.7204 16.3956 22.6736 15.1165 22.6736V17.6957L20.4771 23.0575C21.512 24.0926 23.1864 24.0926 24.2213 23.0575C25.0585 22.22 25.2446 20.929 24.6632 19.8939Z" fill="#2F5F8A"/>
<path d="M13.4421 15.0325C14.3607 15.3116 15.3375 14.7999 15.6166 13.8694C15.8956 12.9506 15.384 11.9736 14.4538 11.6945C13.5351 11.4153 12.5584 11.9271 12.2793 12.8576C12.0002 13.7764 12.5235 14.7534 13.4421 15.0325Z" fill="#2F5F8A"/>
</svg>
