<svg width="19" height="28" viewBox="0 0 19 28" fill="none" xmlns="http://www.w3.org/2000/svg">
<path d="M13.3967 4.00842C13.0875 4.00842 12.837 4.20639 12.837 4.45052V6.13052H10.3741V4.45052C10.3741 4.20634 10.1235 4.00842 9.81438 4.00842C9.50515 4.00842 9.25464 4.20639 9.25464 4.45052V8.93052C9.25464 9.1747 9.50515 9.37261 9.81438 9.37261C10.1236 9.37261 10.3741 9.17464 10.3741 8.93052V7.0147H12.837V8.93052C12.837 9.1747 13.0875 9.37261 13.3967 9.37261C13.706 9.37261 13.9565 9.17464 13.9565 8.93052V4.45052C13.9565 4.20634 13.706 4.00842 13.3967 4.00842Z" fill="#2F5F8A"/>
<path d="M8.02315 4.00842H5.03777C4.72854 4.00842 4.47803 4.20639 4.47803 4.45052V6.57261V8.93052C4.47803 9.1747 4.72854 9.37261 5.03777 9.37261C5.347 9.37261 5.59751 9.17464 5.59751 8.93052V7.0147H8.02315C8.33237 7.0147 8.58289 6.81674 8.58289 6.57261V4.45052C8.58289 4.20634 8.33231 4.00842 8.02315 4.00842ZM7.46334 6.13052H5.59751V4.89261H7.46334V6.13052Z" fill="#2F5F8A"/>
<path d="M17.8749 0H0.559742C0.250513 0 0 0.197969 0 0.442094V3.38948C0 3.63366 0.250513 3.83157 0.559742 3.83157C0.86897 3.83157 1.11948 3.6336 1.11948 3.38948V0.884242H17.3151V12.7319L12.2985 16.0337H6.1361L1.11948 12.7319V5.39366C1.11948 5.14948 0.86897 4.95157 0.559742 4.95157C0.250513 4.95157 0 5.14954 0 5.39366V12.939C0 13.0701 0.0737416 13.1946 0.201352 13.2786L5.37363 16.6829V23.3137C5.37363 23.5579 5.62421 23.7558 5.93337 23.7558H6.56775V27.5579C6.56775 27.8021 6.81826 28 7.12749 28H11.307C11.6162 28 11.8667 27.802 11.8667 27.5579V23.7558H12.5011C12.8103 23.7558 13.0609 23.5578 13.0609 23.3137V16.6829L18.2331 13.2786C18.3607 13.1946 18.4345 13.0701 18.4345 12.9389V0.442094C18.4346 0.197969 18.1841 0 17.8749 0ZM10.7473 27.1158H7.6873V23.7558H10.7473V27.1158ZM11.9414 22.8716H6.49318V16.9179H11.9414V22.8716Z" fill="#2F5F8A"/>
<path d="M15.4862 2.12207H2.94768C2.63845 2.12207 2.38794 2.32004 2.38794 2.56416V10.8168C2.38794 11.061 2.63852 11.2589 2.94768 11.2589H15.4862C15.7954 11.2589 16.0459 11.0609 16.0459 10.8168V2.56416C16.0459 2.32004 15.7954 2.12207 15.4862 2.12207ZM14.9264 10.3747H3.50742V3.00631H14.9264V10.3747Z" fill="#2F5F8A"/>
<path d="M6.38117 11.7894C5.33176 11.7894 4.47803 12.4637 4.47803 13.2926C4.47803 14.1214 5.33176 14.7957 6.38117 14.7957C7.43058 14.7957 8.28432 14.1214 8.28432 13.2926C8.28432 12.4637 7.43058 11.7894 6.38117 11.7894ZM6.38117 13.9115C5.94904 13.9115 5.59751 13.6339 5.59751 13.2926C5.59751 12.9513 5.94904 12.6736 6.38117 12.6736C6.8133 12.6736 7.16484 12.9513 7.16484 13.2926C7.16484 13.6339 6.8133 13.9115 6.38117 13.9115Z" fill="#2F5F8A"/>
<path d="M12.0535 11.7894C11.0041 11.7894 10.1504 12.4637 10.1504 13.2926C10.1504 14.1214 11.0041 14.7957 12.0535 14.7957C13.1029 14.7957 13.9567 14.1214 13.9567 13.2926C13.9567 12.4637 13.1029 11.7894 12.0535 11.7894ZM12.0535 13.9115C11.6214 13.9115 11.2699 13.6339 11.2699 13.2926C11.2699 12.9513 11.6214 12.6736 12.0535 12.6736C12.4857 12.6736 12.8372 12.9513 12.8372 13.2926C12.8372 13.6339 12.4857 13.9115 12.0535 13.9115Z" fill="#2F5F8A"/>
<path d="M10.4115 19.3591C10.1023 19.3591 9.85181 19.5571 9.85181 19.8012V21.4274C9.85181 21.6716 10.1023 21.8695 10.4115 21.8695C10.7208 21.8695 10.9713 21.6715 10.9713 21.4274V19.8012C10.9714 19.557 10.7208 19.3591 10.4115 19.3591Z" fill="#2F5F8A"/>
<path d="M10.4115 17.6841C10.1023 17.6841 9.85181 17.882 9.85181 18.1262V18.5916C9.85181 18.8358 10.1023 19.0337 10.4115 19.0337C10.7208 19.0337 10.9713 18.8357 10.9713 18.5916V18.1262C10.9714 17.882 10.7208 17.6841 10.4115 17.6841Z" fill="#2F5F8A"/>
</svg>
