<svg width="28" height="26" viewBox="0 0 28 26" fill="none" xmlns="http://www.w3.org/2000/svg">
<path d="M12.6959 3.50863V1.16954C12.6959 0.526294 13.2672 0 13.9655 0C14.6638 0 15.2351 0.526294 15.2351 1.16954V3.50863C15.2351 4.15187 14.6638 4.67817 13.9655 4.67817C13.2672 4.67817 12.6959 4.15187 12.6959 3.50863ZM22.0401 7.07573L23.8303 5.41498C24.3254 4.95886 24.3254 4.22205 23.8303 3.76593C23.3351 3.3098 22.5353 3.3098 22.0401 3.76593L20.25 5.42668C19.7549 5.8828 19.7549 6.61961 20.25 7.07573C20.7451 7.53185 21.545 7.53185 22.0401 7.07573ZM26.6614 11.6954H24.1223C23.424 11.6954 22.8527 12.2217 22.8527 12.865C22.8527 13.5082 23.424 14.0345 24.1223 14.0345H26.6614C27.3597 14.0345 27.931 13.5082 27.931 12.865C27.931 12.2217 27.3597 11.6954 26.6614 11.6954ZM13.9655 21.0518C13.2672 21.0518 12.6959 21.5781 12.6959 22.2213V24.5604C12.6959 25.2036 13.2672 25.7299 13.9655 25.7299C14.6638 25.7299 15.2351 25.2036 15.2351 24.5604V22.2213C15.2351 21.5781 14.6638 21.0518 13.9655 21.0518ZM5.89091 7.07573L4.08809 5.42668C3.59295 4.97055 3.59295 4.22205 4.08809 3.77762C4.58323 3.3332 5.39577 3.3215 5.87821 3.77762L7.66834 5.42668C8.16348 5.8828 8.16348 6.6313 7.66834 7.07573C7.1732 7.52016 6.37335 7.53185 5.89091 7.07573ZM20.25 18.6542C19.7549 19.1103 19.7549 19.8588 20.25 20.3033L22.0401 21.9523C22.5353 22.4084 23.3478 22.4084 23.8303 21.9523C24.3254 21.4962 24.3254 20.7477 23.8303 20.3033L22.0401 18.6542C21.5577 18.1981 20.7451 18.1981 20.25 18.6542ZM1.26959 14.0345H3.80878C4.50705 14.0345 5.07837 13.5082 5.07837 12.865C5.07837 12.2217 4.50705 11.6954 3.80878 11.6954H1.26959C0.571317 11.6954 0 12.2217 0 12.865C0 13.5082 0.571317 14.0345 1.26959 14.0345ZM5.89091 21.964L7.68104 20.3149C8.17618 19.8588 8.17618 19.1103 7.68104 18.6659C7.18589 18.2215 6.37335 18.2098 5.89091 18.6659L4.10078 20.3149C3.60564 20.7711 3.60564 21.5196 4.10078 21.964C4.58323 22.4201 5.39577 22.4201 5.89091 21.964ZM13.9655 5.84771C9.76317 5.84771 6.34796 8.99378 6.34796 12.865C6.34796 16.7361 9.76317 19.8822 13.9655 19.8822C18.1679 19.8822 21.5831 16.7361 21.5831 12.865C21.5831 8.99378 18.1679 5.84771 13.9655 5.84771Z" fill="#2F5F8A"/>
</svg>
