<svg width="25" height="25" viewBox="0 0 25 25" fill="none" xmlns="http://www.w3.org/2000/svg">
<path d="M17.7658 3.12518C15.0946 3.9549 14.1662 6.6757 14.3206 7.81272C14.3696 7.77777 14.4175 7.74407 14.467 7.70756C14.7017 7.53719 14.9572 7.37599 15.2223 7.20978C15.4858 7.04254 15.7696 6.88733 16.0554 6.7299C16.1991 6.65057 16.3498 6.58095 16.4988 6.50916L16.7235 6.40082C16.8204 6.35578 16.88 6.33723 16.9599 6.30417L17.4102 6.1269C17.5668 6.07405 17.7222 6.02239 17.876 5.97072C18.1874 5.86901 18.4882 5.77927 18.781 5.70781C19.366 5.55038 19.9159 5.43578 20.3891 5.34917C21.3367 5.17848 21.9824 5.14607 21.9824 5.14607C21.9824 5.14607 21.8349 5.22103 21.5762 5.35165C21.3164 5.47952 20.9459 5.64892 20.4998 5.85169C20.2752 5.94834 20.0341 6.0535 19.7786 6.16433C19.5225 6.27203 19.2521 6.38475 18.9732 6.50156C18.6969 6.61681 18.4132 6.73707 18.1231 6.85955C17.8393 6.97291 17.5433 7.10704 17.2463 7.24181C16.9695 7.36429 16.6821 7.52743 16.4 7.65967C16.12 7.81046 15.6398 8.00795 15.3683 8.14521C15.0409 8.3077 14.8338 8.39555 14.6257 8.5259C12.2955 10.1346 11.263 12.9824 10.6333 15.9957C10.5215 13.165 10.0195 10.4186 8.29214 8.39302C8.29373 8.39178 8.2961 8.39113 8.29775 8.38956C8.06379 8.13043 7.82077 7.85177 7.57059 7.55326C7.36513 7.30265 7.14795 7.05354 6.93661 6.78782C6.71971 6.5378 6.5065 6.2579 6.28905 6.0192C6.05724 5.76007 5.82834 5.50346 5.6021 5.26919C5.3737 5.02672 5.15042 4.78743 4.9327 4.55536C4.71205 4.32141 4.49884 4.09566 4.29712 3.88026C4.09722 3.66232 3.9064 3.45577 3.73207 3.26496C3.38474 2.87736 3.09595 2.55243 2.89792 2.31686C2.70171 2.07914 2.58993 1.94312 2.58993 1.94312C2.58993 1.94312 3.1755 2.26493 3.99638 2.85029C4.40571 3.14437 4.87658 3.49832 5.36737 3.90798C5.61463 4.10731 5.86376 4.32583 6.11846 4.55978C6.24382 4.67784 6.37128 4.7953 6.49774 4.914L6.85706 5.28143C6.92015 5.34852 6.96939 5.39161 7.04392 5.47758L7.21747 5.67944C7.33299 5.81357 7.44905 5.94645 7.55577 6.08376C7.77108 6.35773 7.9816 6.63008 8.17193 6.9034C8.36303 7.17672 8.54697 7.44119 8.70876 7.70448C8.74308 7.76116 8.77531 7.81278 8.80964 7.86757C9.3204 6.88673 9.34037 3.95236 7.13842 1.97839C4.74059 -0.169073 1.3992 0.794453 0 0C1.41279 2.5568 1.14154 4.26376 3.51494 7.06961C5.101 8.94688 6.58222 9.0631 7.58002 8.73656C9.60951 11.0478 9.92625 14.5712 9.9273 17.943C9.7197 17.7439 9.46737 17.5878 9.17621 17.5878C8.35482 17.5878 7.75672 18.1344 7.47007 18.914C5.66204 18.186 4.46114 19.8781 4.35707 21.3033C3.49684 20.9248 2.40553 22.0955 2.40553 23.1126C2.40553 24.1171 3.07653 24.9301 3.91706 24.9723L17.226 25C17.226 25 18.644 24.0956 18.644 23.112C18.644 22.0811 17.9377 21.2441 17.0663 21.2441C16.9454 21.2441 16.8299 21.263 16.7181 21.2932C16.7256 21.2208 16.5659 18.0506 14.2375 19.324C14.0565 18.3321 13.8191 17.5878 12.4201 17.5878C11.731 17.5878 11.2644 17.8837 10.9658 18.1847C11.5485 14.6782 12.4489 11.015 15.0733 9.20289C15.102 9.18369 15.1169 9.15786 15.1371 9.13456C15.9484 9.90442 17.3665 10.4992 19.4713 9.46516C22.5694 7.94275 22.8691 6.24302 25 4.51842C23.452 4.62116 20.6744 2.22211 17.7658 3.12518ZM10.5129 18.7749L10.5999 18.6716C10.556 18.7522 10.5291 18.8108 10.5291 18.8108C10.5291 18.8108 10.5203 18.7906 10.5129 18.7749Z" fill="#2F5F8A"/>
</svg>
