<svg width="25" height="23" viewBox="0 0 25 23" fill="none" xmlns="http://www.w3.org/2000/svg">
<path d="M15.9166 0.384959C18.0094 -0.214408 20.6058 -0.184448 24.139 0.981155C24.7479 1.18201 25.118 1.99621 24.9658 2.7997C24.8137 3.6032 24.1967 4.09175 23.5879 3.8909C20.303 2.80724 18.0699 2.83738 16.3987 3.31602C14.7222 3.79611 13.5171 4.74833 12.2404 5.77801L12.1448 5.85514C10.9141 6.84836 9.55132 7.94822 7.75084 8.34418C5.88335 8.75485 3.6773 8.39177 0.71458 6.82765C0.131897 6.52004 -0.151508 5.64728 0.0815904 4.8783C0.314682 4.10932 0.976012 3.73531 1.55869 4.04294C4.27767 5.47836 6.04881 5.67783 7.37728 5.38569C8.72601 5.08909 9.75425 4.26802 11.0552 3.21878C12.3352 2.18643 13.8289 0.982839 15.9166 0.384959Z" fill="#2F5F8A"/>
<path d="M24.139 6.97968C20.6058 5.81409 18.0094 5.78413 15.9166 6.38348C13.8289 6.98138 12.3352 8.18495 11.0552 9.21731C9.75425 10.2665 8.72601 11.0876 7.37728 11.3842C6.04881 11.6763 4.27767 11.4768 1.55869 10.0415C0.976012 9.73385 0.314682 10.1078 0.0815904 10.8769C-0.151508 11.6458 0.131897 12.5186 0.71458 12.8262C3.6773 14.3903 5.88335 14.7534 7.75084 14.3427C9.55132 13.9467 10.9141 12.8469 12.1448 11.8537L12.2404 11.7766C13.5171 10.7468 14.7222 9.79464 16.3987 9.31454C18.0699 8.8359 20.303 8.80578 23.5879 9.88942C24.1967 10.0903 24.8137 9.60174 24.9658 8.79823C25.118 7.99473 24.7479 7.18053 24.139 6.97968Z" fill="#2F5F8A"/>
<path d="M14.92 12.8241C15.784 12.4541 16.4464 13.6436 16.0401 14.7158C15.8545 15.2057 15.6458 15.6225 15.2308 15.8165C14.1205 16.3354 13.2007 17.0661 12.2403 17.8406L12.1448 17.9177C10.9141 18.9109 9.55131 20.0107 7.75083 20.4067C5.88334 20.8174 3.67731 20.4543 0.714578 18.8902C0.131895 18.5826 -0.151505 17.7098 0.0815885 16.9409C0.314691 16.1718 0.97601 15.7978 1.5587 16.1055C4.27767 17.5409 6.04882 17.7403 7.37728 17.4483C8.72601 17.1517 9.75424 16.3306 11.0552 15.2813C12.2916 14.2842 13.564 13.4048 14.92 12.8241Z" fill="#2F5F8A"/>
<path d="M23.3 15.4342C21.8173 12.4479 21.25 11.5 21.25 11.5C21.25 11.5 20.6831 12.4479 19.2012 15.4342C18.4174 17.0154 17.5 18.385 17.5 20.102C17.5 23.1242 21.25 22.9993 21.25 22.9993C21.25 22.9993 25 23.1246 25 20.102C25.0004 18.385 24.083 17.0154 23.3 15.4342Z" fill="#2F5F8A"/>
</svg>
