<svg width="29" height="30" viewBox="0 0 29 30" fill="none" xmlns="http://www.w3.org/2000/svg">
<path d="M21.9302 26.2499C20.6549 26.2788 19.4207 25.7772 18.4979 24.8548C17.5751 23.9324 17.039 22.6645 17.0071 21.3289C17.0258 20.3851 17.2968 19.4657 17.7894 18.6751L21.0261 13.6295C21.1258 13.4743 21.2604 13.3471 21.418 13.2591C21.5757 13.1711 21.7516 13.1251 21.9302 13.1251C22.1088 13.1251 22.2847 13.1711 22.4424 13.2591C22.6 13.3471 22.7346 13.4743 22.8343 13.6295L26.0119 18.5768C26.5375 19.3913 26.8294 20.3463 26.8533 21.3289C26.8214 22.6645 26.2853 23.9324 25.3626 24.8548C24.4398 25.7772 23.2055 26.2788 21.9302 26.2499ZM21.9302 15.5811L19.3025 19.6754C18.9895 20.1661 18.8144 20.7391 18.7973 21.3289C18.8571 22.1563 19.2131 22.9295 19.794 23.4937C20.375 24.0579 21.138 24.3713 21.9302 24.3713C22.7225 24.3713 23.4855 24.0579 24.0664 23.4937C24.6473 22.9295 25.0034 22.1563 25.0631 21.3289C25.0423 20.7003 24.8463 20.0919 24.4992 19.5786L21.9302 15.5811Z" fill="#2F5F8A"/>
<path d="M4.47568 13.125C4.97004 13.125 5.3708 12.7053 5.3708 12.1875C5.3708 11.6697 4.97004 11.25 4.47568 11.25C3.98132 11.25 3.58057 11.6697 3.58057 12.1875C3.58057 12.7053 3.98132 13.125 4.47568 13.125Z" fill="#2F5F8A"/>
<path d="M9.84629 18.75C10.3406 18.75 10.7414 18.3303 10.7414 17.8125C10.7414 17.2947 10.3406 16.875 9.84629 16.875C9.35193 16.875 8.95117 17.2947 8.95117 17.8125C8.95117 18.3303 9.35193 18.75 9.84629 18.75Z" fill="#2F5F8A"/>
<path d="M13.4266 24.375C13.921 24.375 14.3217 23.9553 14.3217 23.4375C14.3217 22.9197 13.921 22.5 13.4266 22.5C12.9323 22.5 12.5315 22.9197 12.5315 23.4375C12.5315 23.9553 12.9323 24.375 13.4266 24.375Z" fill="#2F5F8A"/>
<path d="M15.2169 15C15.7113 15 16.112 14.5803 16.112 14.0625C16.112 13.5447 15.7113 13.125 15.2169 13.125C14.7225 13.125 14.3218 13.5447 14.3218 14.0625C14.3218 14.5803 14.7225 15 15.2169 15Z" fill="#2F5F8A"/>
<path d="M11.6366 11.25C12.1309 11.25 12.5317 10.8303 12.5317 10.3125C12.5317 9.79473 12.1309 9.375 11.6366 9.375C11.1422 9.375 10.7415 9.79473 10.7415 10.3125C10.7415 10.8303 11.1422 11.25 11.6366 11.25Z" fill="#2F5F8A"/>
<path d="M24.1681 11.25C24.6624 11.25 25.0632 10.8303 25.0632 10.3125C25.0632 9.79473 24.6624 9.375 24.1681 9.375C23.6737 9.375 23.2729 9.79473 23.2729 10.3125C23.2729 10.8303 23.6737 11.25 24.1681 11.25Z" fill="#2F5F8A"/>
<path d="M8.056 26.25C8.55036 26.25 8.95112 25.8303 8.95112 25.3125C8.95112 24.7947 8.55036 24.375 8.056 24.375C7.56165 24.375 7.16089 24.7947 7.16089 25.3125C7.16089 25.8303 7.56165 26.25 8.056 26.25Z" fill="#2F5F8A"/>
<path d="M2.6854 20.625C3.17976 20.625 3.58051 20.2053 3.58051 19.6875C3.58051 19.1697 3.17976 18.75 2.6854 18.75C2.19104 18.75 1.79028 19.1697 1.79028 19.6875C1.79028 20.2053 2.19104 20.625 2.6854 20.625Z" fill="#2F5F8A"/>
<path d="M26.8535 3.625H1.79028V5.5H26.8535V3.625Z" fill="#2F5F8A"/>
</svg>
