<svg width="25" height="25" viewBox="0 0 25 25" fill="none" xmlns="http://www.w3.org/2000/svg">
<path d="M4.80762 7.12C4.80762 8.05501 5.00037 8.98086 5.37487 9.8447C5.74937 10.7085 6.29828 11.4934 6.99027 12.1546C7.68225 12.8157 8.50376 13.3402 9.40788 13.698C10.312 14.0558 11.281 14.24 12.2597 14.24C13.2383 14.24 14.2073 14.0558 15.1114 13.698C16.0155 13.3402 16.8371 12.8157 17.529 12.1546C18.221 11.4934 18.7699 10.7085 19.1444 9.8447C19.5189 8.98086 19.7117 8.05501 19.7117 7.12C19.7117 5.23166 18.9266 3.42066 17.529 2.0854C16.1315 0.750141 14.2361 0 12.2597 0C10.2832 0 8.3878 0.750141 6.99027 2.0854C5.59274 3.42066 4.80762 5.23166 4.80762 7.12Z" fill="#2F5F8A"/>
<path d="M5.89767 17.4552V17.4541L5.79913 17.4552C2.63023 17.4552 0.0552324 15.0472 0.000871978 12.057L0 11.9612C0 8.92681 2.59651 6.46682 5.79942 6.46682C8.72093 6.46682 11.1378 8.5138 11.5398 11.1763H11.6669V11.1393C11.6669 7.68584 14.5922 4.87978 18.223 4.82395L18.3334 4.82312C22.0151 4.82312 25 7.65112 25 11.139C25 14.6275 22.0151 17.4552 18.3334 17.4552L18.4073 17.4544V17.4552H5.89797H5.89767Z" fill="#2F5F8A"/>
<path d="M7.83746 18.77C8.04712 18.8429 8.21789 18.9924 8.3122 19.1856C8.40651 19.3788 8.41664 19.5999 8.34036 19.8002L6.94269 23.4692C6.90489 23.5684 6.84702 23.6595 6.77237 23.7374C6.69771 23.8152 6.60775 23.8782 6.5076 23.9229C6.40745 23.9675 6.29909 23.9928 6.18869 23.9974C6.0783 24.002 5.96804 23.9858 5.8642 23.9497C5.76036 23.9136 5.66499 23.8583 5.58352 23.787C5.50205 23.7156 5.43608 23.6297 5.38938 23.534C5.29507 23.3408 5.28497 23.1196 5.36129 22.9193L6.75926 19.2503C6.79703 19.151 6.8549 19.0599 6.92955 18.982C7.00419 18.9042 7.09417 18.8412 7.19432 18.7965C7.29447 18.7519 7.40284 18.7266 7.51324 18.722C7.62364 18.7174 7.73391 18.7336 7.83775 18.7698L7.83746 18.77ZM19.1357 18.77C19.3454 18.8429 19.5161 18.9924 19.6105 19.1856C19.7048 19.3788 19.7149 19.5999 19.6386 19.8002L18.2407 23.4692C18.1643 23.6695 18.0078 23.8327 17.8056 23.9228C17.6034 24.0129 17.372 24.0225 17.1623 23.9496C16.9526 23.8766 16.7819 23.7271 16.6876 23.5339C16.5933 23.3407 16.5832 23.1196 16.6595 22.9193L18.0572 19.2503C18.095 19.151 18.1529 19.0599 18.2275 18.982C18.3022 18.9042 18.3921 18.8412 18.4923 18.7965C18.5924 18.7519 18.7008 18.7266 18.8112 18.722C18.9216 18.7174 19.0319 18.7336 19.1357 18.7698V18.77ZM11.1904 18.6867C11.2942 18.7228 11.3896 18.7781 11.4711 18.8494C11.5526 18.9207 11.6185 19.0067 11.6652 19.1024C11.7119 19.1981 11.7385 19.3016 11.7433 19.4071C11.7481 19.5126 11.7311 19.6179 11.6933 19.7171L11.2822 20.7962C11.2444 20.8954 11.1866 20.9865 11.1119 21.0644C11.0372 21.1422 10.9473 21.2052 10.8471 21.2498C10.6449 21.34 10.4134 21.3496 10.2037 21.2767C9.99403 21.2038 9.82323 21.0542 9.72892 20.861C9.6346 20.6677 9.6245 20.4466 9.70083 20.2463L10.1119 19.1672C10.1496 19.068 10.2075 18.9768 10.2822 18.899C10.3568 18.8211 10.4468 18.7581 10.5469 18.7135C10.6471 18.6689 10.7555 18.6435 10.8659 18.6389C10.9763 18.6344 11.0865 18.6506 11.1904 18.6867ZM15.2386 18.6867C15.3425 18.7228 15.4379 18.7781 15.5193 18.8494C15.6008 18.9207 15.6668 19.0067 15.7135 19.1024C15.7602 19.1981 15.7867 19.3016 15.7915 19.4071C15.7963 19.5126 15.7793 19.6179 15.7415 19.7171L15.3305 20.7962C15.2542 20.9965 15.0976 21.1597 14.8954 21.2498C14.6931 21.34 14.4617 21.3496 14.252 21.2767C14.0423 21.2038 13.8715 21.0542 13.7772 20.861C13.6829 20.6677 13.6728 20.4466 13.7491 20.2463L14.1604 19.1672C14.1982 19.068 14.2561 18.9768 14.3307 18.899C14.4054 18.8211 14.4953 18.7581 14.5955 18.7135C14.6956 18.6689 14.804 18.6435 14.9144 18.6389C15.0248 18.6344 15.1351 18.6506 15.2389 18.6867H15.2386ZM9.98833 22.3613C10.0922 22.3974 10.1876 22.4527 10.269 22.524C10.3505 22.5953 10.4165 22.6813 10.4632 22.777C10.5099 22.8726 10.5364 22.9762 10.5412 23.0817C10.546 23.1872 10.529 23.2925 10.4912 23.3917L10.0802 24.471C10.0039 24.6714 9.84735 24.8346 9.6451 24.9247C9.44284 25.0148 9.21141 25.0245 9.0017 24.9515C8.79199 24.8786 8.6212 24.7291 8.52688 24.5358C8.43257 24.3426 8.42247 24.1215 8.49879 23.9211L8.91013 22.8421C8.9479 22.7428 9.00577 22.6517 9.08042 22.5738C9.15507 22.496 9.24504 22.433 9.34519 22.3883C9.44534 22.3437 9.55371 22.3184 9.66411 22.3138C9.77452 22.3092 9.88478 22.3254 9.98862 22.3616L9.98833 22.3613ZM14.0369 22.3613C14.1407 22.3974 14.2361 22.4527 14.3176 22.524C14.3991 22.5953 14.465 22.6813 14.5118 22.777C14.5585 22.8726 14.585 22.9762 14.5898 23.0817C14.5946 23.1872 14.5776 23.2925 14.5398 23.3917L14.1284 24.471C14.0907 24.5702 14.0328 24.6613 13.9581 24.7392C13.8835 24.817 13.7935 24.88 13.6934 24.9246C13.4912 25.0147 13.2598 25.0243 13.0501 24.9514C12.8404 24.8785 12.6697 24.7289 12.5754 24.5357C12.4811 24.3425 12.471 24.1214 12.5473 23.9211L12.9584 22.8421C12.9962 22.7428 13.054 22.6517 13.1287 22.5738C13.2033 22.496 13.2933 22.433 13.3934 22.3883C13.4936 22.3437 13.602 22.3184 13.7124 22.3138C13.8228 22.3092 13.933 22.3254 14.0369 22.3616V22.3613Z" fill="#2F5F8A"/>
</svg>
