<svg width="27" height="28" viewBox="0 0 27 28" fill="none" xmlns="http://www.w3.org/2000/svg">
<path d="M17.3415 4.45166C17.3415 -1.48294 7.14527 -1.48484 7.14634 4.45166V17.0296C5.82098 18.1926 5 19.805 5 21.5865C5 25.1287 8.24312 28 12.2439 28C16.2447 28 19.4878 25.1287 19.4878 21.5865C19.4878 19.805 18.6668 18.1926 17.3415 17.0296V4.45166ZM12.2439 26.5349C9.13171 26.5349 6.60976 24.3011 6.60976 21.5457C6.60976 20.0701 7.33307 18.7447 8.48244 17.8316L8.48781 17.8278L8.49424 17.8164C8.63376 17.7005 8.72498 17.5408 8.74215 17.3631V17.3603C8.74322 17.347 8.74966 17.3375 8.75073 17.3242L8.75717 17.2966V4.45071C8.75395 4.40035 8.75181 4.34144 8.75181 4.28158C8.75181 2.66254 10.2339 1.35039 12.0625 1.35039C12.1269 1.35039 12.1913 1.35229 12.2546 1.35514H12.246C12.3008 1.35229 12.3641 1.35039 12.4285 1.35039C14.2572 1.35039 15.7392 2.66254 15.7392 4.28158C15.7392 4.34144 15.7371 4.40035 15.7328 4.45831V4.45071V17.2966L15.7392 17.3242L15.7467 17.3584C15.7628 17.5399 15.8551 17.7005 15.9946 17.8164L16.0011 17.8278C17.1558 18.7456 17.8791 20.0711 17.8791 21.5457C17.8791 24.3011 15.3561 26.5339 12.2439 26.5349ZM13.0488 19.0449V11.5711C13.0488 11.1777 12.6882 10.8585 12.2439 10.8585C11.7996 10.8585 11.439 11.1777 11.439 11.5711V19.0449C10.1899 19.3661 9.29268 20.3694 9.29268 21.559C9.29268 23.0022 10.6138 24.1719 12.2439 24.1719C13.874 24.1719 15.1951 23.0022 15.1951 21.559C15.1951 20.3694 14.298 19.3661 13.0692 19.0497L13.0488 19.0449ZM23.5122 0.88102C21.5859 0.88102 20.0244 2.26348 20.0244 3.96898C20.0244 5.67449 21.5859 7.05695 23.5122 7.05695C25.4385 7.05695 27 5.67449 27 3.96898C26.9979 2.26443 25.4375 0.882921 23.5122 0.88102ZM23.5122 5.63173C22.4755 5.63173 21.6341 4.88682 21.6341 3.96898C21.6341 3.05115 22.4755 2.30623 23.5122 2.30623C24.5489 2.30623 25.3902 3.05115 25.3902 3.96898C25.3892 4.88682 24.5489 5.63078 23.5122 5.63173Z" fill="#2F5F8A"/>
<path d="M24.5 14H0V15.875H24.5V14Z" fill="#2F5F8A"/>
</svg>
