<svg width="22" height="28" viewBox="0 0 22 28" fill="none" xmlns="http://www.w3.org/2000/svg">
<path d="M12.3415 4.45166C12.3415 -1.48294 2.14527 -1.48484 2.14634 4.45166V17.0296C0.820976 18.1926 0 19.805 0 21.5865C0 25.1287 3.24312 28 7.2439 28C11.2447 28 14.4878 25.1287 14.4878 21.5865C14.4878 19.805 13.6668 18.1926 12.3415 17.0296V4.45166ZM7.2439 26.5349C4.13171 26.5349 1.60976 24.3011 1.60976 21.5457C1.60976 20.0701 2.33307 18.7447 3.48244 17.8316L3.48781 17.8278L3.49424 17.8164C3.63376 17.7005 3.72498 17.5408 3.74215 17.3631V17.3603C3.74322 17.347 3.74966 17.3375 3.75073 17.3242L3.75717 17.2966V4.45071C3.75395 4.40035 3.75181 4.34144 3.75181 4.28158C3.75181 2.66254 5.23385 1.35039 7.06254 1.35039C7.12693 1.35039 7.19132 1.35229 7.25463 1.35514H7.24605C7.30078 1.35229 7.3641 1.35039 7.42849 1.35039C9.25717 1.35039 10.7392 2.66254 10.7392 4.28158C10.7392 4.34144 10.7371 4.40035 10.7328 4.45831V4.45071V17.2966L10.7392 17.3242L10.7467 17.3584C10.7628 17.5399 10.8551 17.7005 10.9946 17.8164L11.0011 17.8278C12.1558 18.7456 12.8791 20.0711 12.8791 21.5457C12.8791 24.3011 10.3561 26.5339 7.2439 26.5349ZM8.04878 19.0449V11.5711C8.04878 11.1777 7.6882 10.8585 7.2439 10.8585C6.79961 10.8585 6.43902 11.1777 6.43902 11.5711V19.0449C5.18985 19.3661 4.29268 20.3694 4.29268 21.559C4.29268 23.0022 5.61376 24.1719 7.2439 24.1719C8.87405 24.1719 10.1951 23.0022 10.1951 21.559C10.1951 20.3694 9.29795 19.3661 8.06917 19.0497L8.04878 19.0449ZM18.5122 0.88102C16.5859 0.88102 15.0244 2.26348 15.0244 3.96898C15.0244 5.67449 16.5859 7.05695 18.5122 7.05695C20.4385 7.05695 22 5.67449 22 3.96898C21.9979 2.26443 20.4375 0.882921 18.5122 0.88102ZM18.5122 5.63173C17.4755 5.63173 16.6341 4.88682 16.6341 3.96898C16.6341 3.05115 17.4755 2.30623 18.5122 2.30623C19.5489 2.30623 20.3902 3.05115 20.3902 3.96898C20.3892 4.88682 19.5489 5.63078 18.5122 5.63173Z" fill="#2F5F8A"/>
</svg>
