<svg width="25" height="25" viewBox="0 0 25 25" fill="none" xmlns="http://www.w3.org/2000/svg">
<path d="M11.3636 3.40909V1.13636C11.3636 0.511364 11.875 0 12.5 0C13.125 0 13.6364 0.511364 13.6364 1.13636V3.40909C13.6364 4.03409 13.125 4.54545 12.5 4.54545C11.875 4.54545 11.3636 4.03409 11.3636 3.40909ZM19.7273 6.875L21.3295 5.26136C21.7727 4.81818 21.7727 4.10227 21.3295 3.65909C20.8864 3.21591 20.1705 3.21591 19.7273 3.65909L18.125 5.27273C17.6818 5.71591 17.6818 6.43182 18.125 6.875C18.5682 7.31818 19.2841 7.31818 19.7273 6.875ZM23.8636 11.3636H21.5909C20.9659 11.3636 20.4545 11.875 20.4545 12.5C20.4545 13.125 20.9659 13.6364 21.5909 13.6364H23.8636C24.4886 13.6364 25 13.125 25 12.5C25 11.875 24.4886 11.3636 23.8636 11.3636ZM12.5 20.4545C11.875 20.4545 11.3636 20.9659 11.3636 21.5909V23.8636C11.3636 24.4886 11.875 25 12.5 25C13.125 25 13.6364 24.4886 13.6364 23.8636V21.5909C13.6364 20.9659 13.125 20.4545 12.5 20.4545ZM5.27273 6.875L3.65909 5.27273C3.21591 4.82955 3.21591 4.10227 3.65909 3.67045C4.10227 3.23864 4.82955 3.22727 5.26136 3.67045L6.86364 5.27273C7.30682 5.71591 7.30682 6.44318 6.86364 6.875C6.42045 7.30682 5.70455 7.31818 5.27273 6.875ZM18.125 18.125C17.6818 18.5682 17.6818 19.2955 18.125 19.7273L19.7273 21.3295C20.1705 21.7727 20.8977 21.7727 21.3295 21.3295C21.7727 20.8864 21.7727 20.1591 21.3295 19.7273L19.7273 18.125C19.2955 17.6818 18.5682 17.6818 18.125 18.125ZM1.13636 13.6364H3.40909C4.03409 13.6364 4.54545 13.125 4.54545 12.5C4.54545 11.875 4.03409 11.3636 3.40909 11.3636H1.13636C0.511364 11.3636 0 11.875 0 12.5C0 13.125 0.511364 13.6364 1.13636 13.6364ZM5.27273 21.3409L6.875 19.7386C7.31818 19.2955 7.31818 18.5682 6.875 18.1364C6.43182 17.7045 5.70455 17.6932 5.27273 18.1364L3.67045 19.7386C3.22727 20.1818 3.22727 20.9091 3.67045 21.3409C4.10227 21.7841 4.82955 21.7841 5.27273 21.3409ZM12.5 5.68182C8.73864 5.68182 5.68182 8.73864 5.68182 12.5C5.68182 16.2614 8.73864 19.3182 12.5 19.3182C16.2614 19.3182 19.3182 16.2614 19.3182 12.5C19.3182 8.73864 16.2614 5.68182 12.5 5.68182Z" fill="#2F5F8A"/>
</svg>
